HIERARCHY
ROOT ui
{
	 OFFSET 0 0 0
	 CHANNELS 3 XPosition YPosition Z Position
	 EndSite
	 {
	 OFFSET 0 -1 0
	 }
}
ROOT li
{
	 OFFSET 0 0 0
	 CHANNELS 3 XPosition YPosition Z Position
	 EndSite
	 {
	 OFFSET 0 -1 0
	 }
}
ROOT ul
{
	 OFFSET 0 0 0
	 CHANNELS 3 XPosition YPosition Z Position
	 EndSite
	 {
	 OFFSET 0 -1 0
	 }
}
ROOT ll
{
	 OFFSET 0 0 0
	 CHANNELS 3 XPosition YPosition Z Position
	 EndSite
	 {
	 OFFSET 0 -1 0
	 }
}
ROOT tt
{
	 OFFSET 0 0 0
	 CHANNELS 3 XPosition YPosition Z Position
	 EndSite
	 {
	 OFFSET 0 -1 0
	 }
}
ROOT tb
{
	 OFFSET 0 0 0
	 CHANNELS 3 XPosition YPosition Z Position
	 EndSite
	 {
	 OFFSET 0 -1 0
	 }
}
ROOT td
{
	 OFFSET 0 0 0
	 CHANNELS 3 XPosition YPosition Z Position
	 EndSite
	 {
	 OFFSET 0 -1 0
	 }
}
ROOT v
{
	 OFFSET 0 0 0
	 CHANNELS 3 XPosition YPosition Z Position
	 EndSite
	 {
	 OFFSET 0 -1 0
	 }
}
ROOT bn
{
	 OFFSET 0 0 0
	 CHANNELS 3 XPosition YPosition Z Position
	 EndSite
	 {
	 OFFSET 0 -1 0
	 }
}
MOTION
Frames: 13
Frame Time: 0.002
-6.713610291481018E-4	-4.946630001068115E-4	0		0.5471918334960938	-2.41628759765625	0		-1.1003399658203126	-0.04921695327758789	0		-0.6607296142578125	-2.31969189453125	0		1.3313055419921875	-0.75563671875	0		2.93801513671875	-0.12699591064453125	0		4.60582861328125	0.09587730407714844	0		5.51981201171875	0.0642065200805664	0		-0.24040342712402343	5.9018310546875	0		
-7.73494005203247E-4	-5.690249800682068E-4	0		0.5454005737304688	-2.41826220703125	0		-1.096387939453125	-0.0454916877746582	0		-0.6964721069335937	-2.31642822265625	0		1.3313079833984376	-0.7555265502929688	0		2.933014404296875	-0.11960400390625	0		4.61062890625	0.08938185119628907	0		5.512638671875	0.06730730438232421	0		-0.29434326171875	5.9003564453125	0		
-8.698409795761109E-4	-6.377599835395813E-4	0		0.550709228515625	-2.4113173828125	0		-1.08056201171875	-0.05289506149291992	0		-0.6813076171875	-2.3207666015625	0		1.205427490234375	-0.7449306030273437	0		2.95174365234375	-0.13550433349609375	0		4.6084970703125	0.08795238494873046	0		5.51550390625	0.08045951080322265	0		-0.2942391357421875	5.89923681640625	0		
0.00612472677230835	0.0062201271057128905	0		0.52698876953125	-2.40602734375	0		-1.0765955810546874	-0.04913909149169922	0		-0.7140155639648438	-2.31352783203125	0		1.3394378662109374	-0.7454022216796875	0		2.97196484375	-0.11042440795898438	0		4.61856201171875	0.10236029815673828	0		5.518373046875	0.09356874084472656	0		-0.26001931762695313	5.90373046875	0		
0.0030043699741363525	0.00220778489112854	0		0.5511436767578125	-2.411289306640625	0		-1.0925928955078126	-0.04313137054443359	0		-0.654827880859375	-2.31534326171875	0		1.3333729248046875	-0.7522201538085938	0		2.92272265625	-0.1255494155883789	0		4.62133740234375	0.09083096313476563	0		5.5125185546875	0.07054344940185547	0		-0.26277593994140624	5.90567431640625	0		
0.002946578025817871	0.0021740500926971437	0		0.5134607543945312	-2.401827392578125	0		-1.084794921875	-0.05637810516357422	0		-0.6576497192382813	-2.317416015625	0		1.3313651123046875	-0.7550823364257813	0		2.953677001953125	-0.1256121597290039	0		4.6053505859375	0.098495361328125	0		5.5124951171875	0.07152417755126952	0		-0.2625041198730469	5.904599609375	0		
-0.0011269290447235107	-7.987149953842163E-4	0		0.5485079345703125	-2.416189208984375	0		-1.090771484375	-0.051440898895263674	0		-0.6954476928710938	-2.3170712890625	0		1.3314034423828125	-0.754963623046875	0		2.934594970703125	-0.13011026000976564	0		4.61022119140625	0.09189549255371093	0		5.51248388671875	0.07245281982421875	0		-0.29721856689453124	5.89893994140625	0		
-0.0011467920541763305	-8.009260296821594E-4	0		0.49680963134765627	-2.407554931640625	0		-1.156793701171875	-0.05180355072021484	0		-0.717258544921875	-2.3178916015625	0		1.333488525390625	-0.7518626098632812	0		2.943789306640625	-0.1119374008178711	0		4.61916943359375	0.09022797393798829	0		5.51539404296875	0.08536095428466797	0		-0.26373065185546873	5.90452685546875	0		
0.005932003974914551	0.006135787963867188	0		0.5540028076171875	-2.40913330078125	0		-1.0808040771484375	-0.05373594284057617	0		-0.7229240112304688	-2.30587158203125	0		1.211706787109375	-0.7373714599609374	0		2.94357666015625	-0.1316678009033203	0		4.6191630859375	0.0906403045654297	0		5.5196240234375	0.07223369598388672	0		-0.2642370300292969	5.90451953125	0		
0.002910440921783447	0.0022032790184020996	0		0.5521907348632813	-2.411034423828125	0		-1.08077685546875	-0.053786266326904295	0		-0.6538260498046875	-2.315658447265625	0		1.333635498046875	-0.7515956420898438	0		2.948753662109375	-0.1184621353149414	0		4.61426806640625	0.09908713531494141	0		5.51965283203125	0.0730157241821289	0		-0.22962983703613282	5.90814404296875	0		
-0.0010769220590591431	-7.006170153617859E-4	0		0.57734716796875	-2.416219482421875	0		-1.0966494140625	-0.046633831024169924	0		-0.6926172485351563	-2.31522265625	0		1.3317003173828126	-0.7544291381835937	0		2.9377421875	-0.12408414459228516	0		4.62515185546875	0.08533890533447265	0		5.51620947265625	0.09114749145507813	0		-0.2650364990234375	5.90456591796875	0		
-0.0010088340044021606	-6.314389705657959E-4	0		0.55059814453125	-2.412819091796875	0		-1.0846888427734376	-0.05676283264160156	0		-0.6584637451171875	-2.320568115234375	0		1.3318148193359376	-0.754278076171875	0		2.93781787109375	-0.12383438110351562	0		4.61928076171875	0.09175772857666016	0		5.51263134765625	0.07636593627929687	0		-0.28045086669921876	5.89378369140625	0		
-9.184790253639222E-4	-5.45307993888855E-4	0		0.5508177490234375	-2.41270361328125	0		-1.156547607421875	-0.05195006942749023	0		-0.7063117065429687	-2.325993408203125	0		1.337021484375	-0.7471754760742187	0		2.948761474609375	-0.13770991516113282	0		4.61530078125	0.08613531494140625	0		5.5127041015625	0.07701405334472657	0		-0.29665350341796876	5.896029296875	0		
